# xmcd CD database file
#
# Track frame offsets:
#	150
#	13362
#	24630
#	38072
#	50705
#	68820
#	86847
#	101387
#	116437
#	135240
#	151760
#	166972
#	183955
#	199182
#	215042
#	230657
#	243960
#	258332
#	274917
#	292035
#	302607
#
# Disc length: 4217 seconds
#
# Revision: 0
# Processed by: cddbd v1.5.2PL0 Copyright (c) Steve Scherf et al.
# Submitted via: CDex 1.70beta2
#
DISCID=2a107715
DTITLE=ChartBreakers - ChartBreakers CGC-541
DYEAR=1900
DGENRE=Country
TTITLE0=Reba McEntire - You're The First Time I've Thought About Leaving
TTITLE1=Buck Owens - Together Again
TTITLE2=Dolly Parton - Two Doors Down
TTITLE3=Freddy Fender - Wasted Days and Wasted Nights
TTITLE4=Ronnie Milsap - What A Difference You've Made In My Life
TTITLE5=Michael Martin Murphy - I'm Gonna Miss You Girl
TTITLE6=Bellamy Brothers - If I Said You Have A Beautiful Body Would You Hold It Against Me
TTITLE7=Nitty Gritty Dirt Band - Long Hard Road
TTITLE8=Don Williams - Lord, I Hope This Day Is Good
TTITLE9=Kathy Mattea - Love At The Five And Dime
TTITLE10=T G Sheppard - Only One You
TTITLE11=Eddie Rabbitt - Runnin' With The Wind
TTITLE12=Larry Gatlin and The Gatlin Brothers - She Used To Be Somebody's Baby
TTITLE13=Steve Wariner - Domino Theory
TTITLE14=Kenny Rogers - Factory
TTITLE15=Ronnie Milsap - What Goes On When The Sun Goes Down
TTITLE16=Tanya Tucker - What's Your Mama's NAme
TTITLE17=Willie Nelson - Whiskey River
TTITLE18=Conway Twitty - She's Got A Single Thing In Mind
TTITLE19=Barbara Mandrell - Sleeping Single In A Double Bed
TTITLE20=Patty Loveless - Lonely Side Of Love
EXTD=YEAR: 1900
EXTT0=
EXTT1=
EXTT2=
EXTT3=
EXTT4=
EXTT5=
EXTT6=
EXTT7=
EXTT8=
EXTT9=
EXTT10=
EXTT11=
EXTT12=
EXTT13=
EXTT14=
EXTT15=
EXTT16=
EXTT17=
EXTT18=
EXTT19=
EXTT20=
PLAYORDER=
